<svg xmlns="http://www.w3.org/2000/svg" xmlns:xlink="http://www.w3.org/1999/xlink" version="1.1" x="0px" y="0px" viewBox="0 0 68 85" style="enable-background:new 0 0 68 68;" xml:space="preserve"><g fill="#5691FC"><g><g><g><g><g><g><g><g><g><g><path d="M52.5869141,37.1787109c-0.0551758,0-0.1108398-0.0048828-0.1669922-0.0136719             c-0.5444336-0.0917969-0.9116211-0.6074219-0.8203125-1.1523438             c0.5092773-3.0234375,1.9345703-5.9990234,4.1220703-8.6054688             c1.6967773-2.0048828,2.5830078-4.5683594,2.4990234-7.2236328             c-0.199707-5.5927734-4.9155273-10.1972656-10.5126953-10.2587891c-0.0380859,0-0.0771484-0.0009766-0.1157227-0.0009766             c-2.8242188,0-5.4804688,1.0917969-7.4907227,3.0810547c-2.0341797,2.0126953-3.1547852,4.6962891-3.1547852,7.5556641             c0,2.609375,0.953125,5.1201172,2.6845703,7.0703125c2.1049805,2.3652344,3.4716797,5.2685547,3.9511719,8.3964844             c0.0839844,0.5458984-0.2910156,1.0556641-0.8369141,1.1396484             c-0.5405273,0.0820313-1.0561523-0.2900391-1.1396484-0.8369141             c-0.4213867-2.7451172-1.6210938-5.2939453-3.4697266-7.3701172             c-2.0571289-2.3183594-3.1894531-5.3007813-3.1894531-8.3994141c0-3.3974609,1.3310547-6.5859375,3.7480469-8.9775391             c2.3876953-2.3623047,5.5424805-3.6591797,8.8974609-3.6591797c0.0458984,0,0.0913086,0.0009766,0.1376953,0.0009766             c6.6499023,0.0732422,12.2524414,5.5429688,12.4897461,12.1914063             c0.0996094,3.1542969-0.9545898,6.2001953-2.96875,8.5800781             c-1.9560547,2.3300781-3.2290039,4.9765625-3.6787109,7.6484375             C53.4897461,36.8330078,53.0664063,37.1787109,52.5869141,37.1787109z"/></g></g></g><g><path d="M52.0410156,41.1914063h-8.9086914c-1.4995117,0-2.7192383-1.2197266-2.7192383-2.71875v-0.5927734           c0-1.4990234,1.2197266-2.71875,2.7192383-2.71875h8.9086914c1.4990234,0,2.71875,1.2197266,2.71875,2.71875v0.5927734           C54.7597656,39.9716797,53.5400391,41.1914063,52.0410156,41.1914063z M43.1323242,37.1611328           c-0.3964844,0-0.7192383,0.3222656-0.7192383,0.71875v0.5927734c0,0.3964844,0.3227539,0.71875,0.7192383,0.71875           h8.9086914c0.3964844,0,0.71875-0.3222656,0.71875-0.71875v-0.5927734c0-0.3964844-0.3222656-0.71875-0.71875-0.71875           H43.1323242z"/></g><g><path d="M56.7119141,39.1767578h-2.9521484c-0.5522461,0-1-0.4472656-1-1s0.4477539-1,1-1h2.9521484           c0.5522461,0,1,0.4472656,1,1S57.2641602,39.1767578,56.7119141,39.1767578z"/></g><g><path d="M41.4130859,39.1767578h-2.9521484c-0.5522461,0-1-0.4472656-1-1s0.4477539-1,1-1h2.9521484           c0.5522461,0,1,0.4472656,1,1S41.965332,39.1767578,41.4130859,39.1767578z"/></g></g><g><path d="M66,21.0253906h-2.0356445c-0.5522461,0-1-0.4472656-1-1s0.4477539-1,1-1H66c0.5522461,0,1,0.4472656,1,1          S66.5522461,21.0253906,66,21.0253906z"/></g><g><path d="M58.8911133,9.5576172c-0.2558594,0-0.5117188-0.0976563-0.7070313-0.2929688          c-0.390625-0.390625-0.390625-1.0234375,0-1.4140625l1.4394531-1.4394531c0.390625-0.390625,1.0234375-0.390625,1.4140625,0          s0.390625,1.0234375,0,1.4140625l-1.4394531,1.4394531C59.402832,9.4599609,59.1469727,9.5576172,58.8911133,9.5576172z"/></g><g><path d="M47.1943359,5.0351563c-0.5522461,0-1-0.4472656-1-1V2c0-0.5527344,0.4477539-1,1-1s1,0.4472656,1,1v2.0351563          C48.1943359,4.5878906,47.746582,5.0351563,47.1943359,5.0351563z"/></g><g><path d="M35.7250977,10.1074219c-0.2558594,0-0.5117188-0.0976563-0.7070313-0.2929688l-1.4394531-1.4384766          c-0.390625-0.3896484-0.390625-1.0234375-0.0004883-1.4140625c0.390625-0.390625,1.0239258-0.390625,1.4145508,0          l1.4394531,1.4384766c0.390625,0.3896484,0.390625,1.0234375,0.0004883,1.4140625          C36.2373047,10.0097656,35.980957,10.1074219,35.7250977,10.1074219z"/></g><g><path d="M31.2026367,21.8046875h-2.0356445c-0.5522461,0-1-0.4472656-1-1s0.4477539-1,1-1h2.0356445          c0.5522461,0,1,0.4472656,1,1S31.7548828,21.8046875,31.2026367,21.8046875z"/></g><g><path d="M34.8364258,34.7119141c-0.2558594,0-0.5117188-0.0976563-0.7070313-0.2929688          c-0.390625-0.390625-0.390625-1.0234375,0-1.4140625l1.4394531-1.4394531c0.390625-0.390625,1.0234375-0.390625,1.4140625,0          s0.390625,1.0234375,0,1.4140625l-1.4394531,1.4394531C35.3481445,34.6142578,35.0922852,34.7119141,34.8364258,34.7119141z          "/></g><g><path d="M60.8813477,34.1611328c-0.2558594,0-0.5117188-0.0976563-0.7070313-0.2929688l-1.4394531-1.4394531          c-0.390625-0.390625-0.390625-1.0234375,0-1.4140625s1.0234375-0.390625,1.4140625,0l1.4394531,1.4394531          c0.390625,0.390625,0.390625,1.0234375,0,1.4140625C61.3930664,34.0634766,61.137207,34.1611328,60.8813477,34.1611328z"/></g></g></g></g><g><path d="M47.5307617,45.0117188c-2.65625,0-4.8173828-2.1611328-4.8173828-4.8173828c0-0.5527344,0.4477539-1,1-1       s1,0.4472656,1,1c0,1.5537109,1.2636719,2.8173828,2.8173828,2.8173828s2.8173828-1.2636719,2.8173828-2.8173828       c0-0.5527344,0.4477539-1,1-1s1,0.4472656,1,1C52.3481445,42.8505859,50.1870117,45.0117188,47.5307617,45.0117188z"/></g></g></g><g><path d="M46.3266602,23.8369141c-0.2558594,0-0.5117188-0.0976563-0.7070313-0.2929688l-2.0771484-2.0771484     c-0.390625-0.390625-0.390625-1.0234375,0-1.4140625s1.0234375-0.390625,1.4140625,0l1.3701172,1.3701172l3.8847656-3.8847656     c0.390625-0.390625,1.0234375-0.390625,1.4140625,0s0.390625,1.0234375,0,1.4140625l-4.5917969,4.5917969     C46.8383789,23.7392578,46.5825195,23.8369141,46.3266602,23.8369141z"/></g></g><g><g><g><g><g><g><path d="M28.2685547,36.5673828c-0.0161133,0-0.0327148,0-0.0488281-0.0009766         c-9.6762695-0.4697266-13.6704102-5.1210938-13.8354492-5.3183594         c-0.2880859-0.3447266-0.3110352-0.8388672-0.0566406-1.2089844c0.831543-1.2070313,0.5112305-2.0693359,0.0673828-3.2636719         c-0.0649414-0.1748047-0.1289063-0.3486328-0.1889648-0.5214844         c-0.1157227-0.3349609-0.0454102-0.7070313,0.1855469-0.9765625c2.2011719-2.5722656,6.2299805-3.0810547,9.7963867-1.234375         c3.2724609,1.6923828,6.5585938,5.7910156,5.0498047,11.7695313         C29.125,36.2578125,28.7241211,36.5673828,28.2685547,36.5673828z M16.4042969,30.4375         c1.1962891,1.0605469,4.6625977,3.5742188,11.0668945,4.0771484c0.7641602-4.3925781-1.609375-7.3544922-4.2021484-8.6962891         c-2.5263672-1.3056641-5.2978516-1.1425781-6.9638672,0.3554688         C16.7172852,27.2861328,17.2172852,28.7412109,16.4042969,30.4375z"/></g><g><path d="M10.2939453,36.5673828c-0.1611328,0-0.3212891-0.0390625-0.4672852-0.1162109         c-0.2651367-0.1396484-0.4536133-0.3916016-0.5126953-0.6855469c-0.84375-4.1757813-0.3710938-7.4902344,1.331543-9.3349609         c0.777832-0.8427734,2.2133789-1.7792969,4.625-1.4960938c0.5483398,0.0664063,0.9394531,0.5644531,0.8735352,1.1123047         c-0.0654297,0.5488281-0.5678711,0.9394531-1.1118164,0.8740234c-1.2836914-0.15625-2.2368164,0.1298828-2.9174805,0.8662109         c-1.059082,1.1474609-1.4350586,3.4384766-1.0610352,6.2675781c2.3847656-1.4765625,3.1108398-3.6464844,3.1445313-3.7509766         c0.1689453-0.5234375,0.7285156-0.8125,1.2548828-0.6484375c0.5244141,0.1669922,0.8168945,0.7236328,0.652832,1.2490234         c-0.0483398,0.1552734-1.2324219,3.8183594-5.4238281,5.5849609         C10.5581055,36.5410156,10.4257813,36.5673828,10.2939453,36.5673828z"/></g></g><g><path d="M19.2807617,48.4501953c-5.5068359,0-9.9868164-5.7792969-9.9868164-12.8828125c0-0.5527344,0.4477539-1,1-1        s1,0.4472656,1,1c0,6.0009766,3.5830078,10.8828125,7.9868164,10.8828125        c4.4042969,0,7.9873047-4.8818359,7.9873047-10.8828125c0-0.5527344,0.4477539-1,1-1s1,0.4472656,1,1        C29.2680664,42.6708984,24.7875977,48.4501953,19.2807617,48.4501953z"/></g></g><g><path d="M36.5620117,67H2c-0.5522461,0-1-0.4472656-1-1v-7.5c0-4.0625,2.9145508-7.4853516,6.9301758-8.1376953       c1.4677734-0.2324219,2.800293-0.984375,3.7563477-2.1171875c0.7568359-0.8896484,1.2451172-1.9667969,1.4150391-3.1201172       c0.0805664-0.546875,0.5947266-0.9306641,1.1347656-0.84375c0.5463867,0.0800781,0.9243164,0.5888672,0.84375,1.1347656       c-0.2246094,1.5253906-0.8706055,2.9501953-1.8681641,4.1220703c-1.262207,1.4960938-3.0263672,2.4912109-4.9648438,2.7988281       C5.2080078,52.8310547,3,55.4228516,3,58.5V65h32.5620117v-6.5c0-1.4746094-0.5297852-2.9111328-1.4921875-4.0429688       c-0.9580078-1.1347656-2.2905273-1.8867188-3.7553711-2.1201172c-3.5668945-0.5771484-6.3115234-3.3583984-6.8325195-6.921875       c-0.0800781-0.5458984,0.2983398-1.0537109,0.8447266-1.1337891c0.5380859-0.0898438,1.0541992,0.2978516,1.1337891,0.8447266       c0.3945313,2.6953125,2.472168,4.7998047,5.1708984,5.2363281c1.9360352,0.3085938,3.699707,1.3037109,4.9643555,2.8027344       C36.862793,54.6552734,37.5620117,56.5507813,37.5620117,58.5V66C37.5620117,66.5527344,37.1142578,67,36.5620117,67z"/></g></g><g><path d="M19.28125,53.5351563c-2.9511719,0-5.9023438-1.0712891-8.2021484-3.2138672      c-0.4042969-0.3759766-0.4262695-1.0087891-0.050293-1.4130859c0.3779297-0.4023438,1.0102539-0.4257813,1.4135742-0.0498047      c3.8349609,3.5722656,9.8422852,3.5732422,13.6772461,0c0.4042969-0.3769531,1.0361328-0.3554688,1.4135742,0.0498047      c0.3759766,0.4042969,0.3540039,1.0371094-0.050293,1.4130859C25.1831055,52.4638672,22.2319336,53.5351563,19.28125,53.5351563      z"/></g></g><g><g><path d="M28.980957,66.9980469c-0.5522461,0-1-0.4472656-1-1v-6.7246094c0-0.5527344,0.4477539-1,1-1s1,0.4472656,1,1v6.7246094      C29.980957,66.5507813,29.5332031,66.9980469,28.980957,66.9980469z"/></g><g><path d="M9.5810547,66.9980469c-0.5522461,0-1-0.4472656-1-1v-6.7246094c0-0.5527344,0.4477539-1,1-1s1,0.4472656,1,1v6.7246094      C10.5810547,66.5507813,10.1333008,66.9980469,9.5810547,66.9980469z"/></g></g></g></g><text x="0" y="83" fill="#ffffff" font-size="5px" font-weight="bold" font-family="'Helvetica Neue', Helvetica, Arial-Unicode, Arial, Sans-serif"></text><text x="0" y="88" fill="#000000" font-size="5px" font-weight="bold" font-family="'Helvetica Neue', Helvetica, Arial-Unicode, Arial, Sans-serif">from the Noun Project</text></svg>