<?xml version="1.0" encoding="UTF-8"?>
<!DOCTYPE svg PUBLIC "-//W3C//DTD SVG 1.1//EN" "http://www.w3.org/Graphics/SVG/1.1/DTD/svg11.dtd">
<!-- Creator: CorelDRAW -->
<svg xmlns="http://www.w3.org/2000/svg" xml:space="preserve" width="1.70666in" height="1.70666in" version="1.1" style="shape-rendering:geometricPrecision; text-rendering:geometricPrecision; image-rendering:optimizeQuality; fill-rule:evenodd; clip-rule:evenodd"
viewBox="0 0 1707 1707"
 xmlns:xlink="http://www.w3.org/1999/xlink">
 <defs>
  <style type="text/css">
   <![CDATA[
    .fil0 {fill: #520C30}
   ]]>
  </style>
 </defs>
 <g id="Layer_x0020_1">
  <metadata id="CorelCorpID_0Corel-Layer"/>
  <g id="_421424976">
   <g>
    <g id="_421403328">
     <path class="fil0" d="M1127 1520l-1104 0c-13,0 -23,-10 -23,-23l0 -64c0,-292 237,-533 529,-538 0,0 0,0 0,0 13,0 23,11 24,23 0,13 -11,24 -23,24 -267,4 -483,224 -483,491l0 40 1080 0c12,0 23,11 23,24 0,13 -11,23 -23,23zm14 -476c-5,0 -10,-1 -14,-5 -83,-62 -182,-95 -285,-97 -13,0 -23,-11 -23,-24 0,-13 11,-23 24,-23 113,2 221,39 312,107 10,8 12,22 4,33 -4,6 -11,9 -18,9z"/>
    </g>
    <g>
     <g id="_421426080">
      <path class="fil0" d="M501 1251c-2,0 -4,0 -5,-1 -8,-2 -14,-7 -16,-14l-114 -286c-5,-12 1,-26 13,-31 12,-4 25,1 30,13l102 257 140 -116 -138 -138 33 -33 156 156c5,5 7,11 7,18 0,6 -3,12 -8,17l-185 153c-4,3 -9,5 -15,5z"/>
     </g>
     <g id="_421395528">
      <path class="fil0" d="M870 1251c-5,0 -11,-2 -15,-5l-184 -153c-5,-5 -8,-11 -9,-17 0,-7 3,-13 7,-18l157 -156c2,-2 4,-3 6,-4 11,-6 25,-1 31,10 5,10 3,21 -5,28l-138 137 140 116 102 -257c5,-12 19,-17 31,-13 12,5 18,19 13,31l-114 286c-3,7 -9,12 -16,14 -2,1 -4,1 -6,1z"/>
     </g>
    </g>
    <g id="_421415184">
     <path class="fil0" d="M744 1310l-116 0c-7,0 -12,-2 -17,-7l-90 -89c-9,-9 -9,-24 0,-33 10,-9 24,-9 33,0l83 83 97 0 83 -83c9,-9 24,-9 33,0 9,9 9,24 0,33l-90 89c-4,5 -10,7 -16,7z"/>
    </g>
    <g id="_421401096">
     <path class="fil0" d="M578 1520c-1,0 -3,0 -5,-1 -13,-2 -20,-15 -17,-28l49 -209c3,-13 15,-21 28,-18 13,3 20,16 17,28l-49 210c-2,11 -12,18 -23,18z"/>
    </g>
    <g id="_421420512">
     <path class="fil0" d="M793 1520c-11,0 -20,-7 -23,-18l-49 -210c-3,-12 5,-25 17,-28 13,-3 26,5 28,18l50 209c3,13 -5,26 -18,28 -1,1 -3,1 -5,1z"/>
    </g>
    <g id="_421420464">
     <path class="fil0" d="M1357 1615c-193,0 -350,-157 -350,-350 0,-193 157,-350 350,-350 193,0 350,157 350,350 0,193 -157,350 -350,350zm0 -653c-167,0 -303,136 -303,303 0,167 136,303 303,303 167,0 303,-136 303,-303 0,-167 -136,-303 -303,-303z"/>
    </g>
    <g id="_421421952">
     <path class="fil0" d="M529 942c-13,0 -23,-10 -23,-23l0 -156c0,-13 10,-23 23,-23 13,0 24,10 24,23l0 156c0,13 -11,23 -24,23zm313 0c-13,0 -23,-11 -23,-23l0 -164c0,-13 10,-24 23,-24 13,0 24,11 24,24l0 164c0,12 -11,23 -24,23z"/>
    </g>
    <g>
     <g id="_421424712">
      <path class="fil0" d="M896 647c-8,0 -16,-4 -20,-11 -7,-11 -4,-26 8,-32 90,-55 85,-156 79,-262 -1,-19 -2,-38 -2,-56 -51,-8 -93,-40 -133,-71 -44,-34 -89,-69 -146,-76 -66,-7 -141,23 -231,93 -25,20 -41,71 -43,135 -2,87 22,167 61,201 10,8 11,23 2,33 -8,9 -23,10 -32,2 -61,-52 -80,-160 -78,-237 2,-80 24,-142 61,-170 227,-178 342,-90 434,-18 44,34 83,63 128,63 13,0 23,10 23,23 0,25 1,50 3,75 6,111 12,236 -102,305 -4,2 -8,3 -12,3z"/>
     </g>
     <g id="_421426200">
      <path class="fil0" d="M689 856c-2,0 -5,0 -7,0 -3,0 -5,0 -8,0 -49,0 -106,-25 -152,-68 -49,-44 -77,-98 -77,-149 -2,-188 0,-198 1,-201 1,-12 11,-20 23,-20 170,0 188,-19 208,-41 17,-18 37,-40 103,-57 3,-1 5,-1 8,-1 9,0 35,0 125,107 3,4 4,7 5,12 1,3 2,13 1,201 -1,51 -29,105 -77,149 -47,43 -104,68 -153,68zm-7 -47c0,0 1,0 1,0 2,1 4,1 6,1 82,0 182,-94 183,-171 1,-114 1,-170 0,-188 -31,-37 -70,-76 -85,-85 -49,14 -62,28 -76,43 -30,33 -58,54 -220,56 0,26 0,81 1,174 0,77 101,171 182,171 2,0 4,0 6,-1 1,0 1,0 2,0z"/>
     </g>
    </g>
    <g>
     <g id="_421421448">
      <path class="fil0" d="M1357 1524c-13,0 -24,-11 -24,-23l0 -471c0,-13 11,-23 24,-23 13,0 23,10 23,23l0 471c0,12 -10,23 -23,23z"/>
     </g>
     <g id="_421424328">
      <path class="fil0" d="M1357 1493c-69,0 -125,-57 -125,-126 0,-13 10,-23 23,-23 13,0 23,10 23,23 0,44 35,79 79,79 43,0 78,-35 78,-79 0,-43 -35,-78 -78,-78 -69,0 -125,-57 -125,-126 0,-69 56,-125 125,-125 69,0 125,56 125,125 0,13 -10,24 -23,24 -13,0 -24,-11 -24,-24 0,-43 -35,-78 -78,-78 -44,0 -79,35 -79,78 0,44 35,79 79,79 69,0 125,56 125,125 0,69 -56,126 -125,126z"/>
     </g>
    </g>
   </g>
  </g>
 </g>
</svg>
